<svg xmlns="http://www.w3.org/2000/svg" xmlns:xlink="http://www.w3.org/1999/xlink" preserveAspectRatio="xMidYMid" width="16" height="14" viewBox="0 0 16 14">
  <defs>
    <style>

      .cls-2 {
        fill: #5baa00;
      }
    </style>
  </defs>
  <path d="M13.357,13.835 C13.357,13.835 7.993,4.300 7.993,4.300 C7.993,4.300 4.780,10.014 4.780,10.014 C4.780,10.014 10.090,10.014 10.090,10.014 C10.090,10.014 7.851,13.995 7.851,13.995 C7.851,13.995 2.741,13.995 2.741,13.995 C2.741,13.995 0.008,9.284 0.008,9.284 C0.008,9.284 5.381,-0.001 5.381,-0.001 C5.381,-0.001 10.620,-0.001 10.620,-0.001 C10.620,-0.001 15.996,9.288 15.996,9.288 C15.996,9.288 13.357,13.835 13.357,13.835 Z" id="path-1" class="cls-2" fill-rule="evenodd"/>
</svg>
